<svg width="108" height="34" viewBox="0 0 108 34" fill="none" xmlns="http://www.w3.org/2000/svg">
<path d="M27.4903 20.1723C27.7821 19.2119 27.941 18.194 27.941 17.1399C27.941 17.0228 27.9366 16.9078 27.9323 16.7907C23.7455 14.3673 20.5886 9.17568 19.2671 6.71189C18.5529 6.56709 17.8127 6.49255 17.055 6.49255C16.2974 6.49255 15.6072 6.56496 14.9149 6.69911C14.3248 7.7894 13.3734 9.41844 12.1237 11.1071C10.6824 13.0556 8.61623 15.3852 6.17778 16.7992C6.17342 16.912 6.16907 17.0249 6.16907 17.1399C6.16907 18.1961 6.328 19.2161 6.62192 20.1786C8.43117 19.346 10.0728 18.1131 11.5163 16.7225C10.4864 19.1054 9.33906 21.418 8.14378 23.2515C8.78823 24.1501 9.57202 24.9465 10.4625 25.6109C11.7688 23.7412 13.0882 21.2817 14.4119 18.243C13.9438 21.369 13.2645 24.1054 12.2848 26.714C13.2558 27.1782 14.3096 27.504 15.4178 27.668C16.1188 25.9176 16.6718 24.1778 17.1073 21.9142C17.5449 24.1693 18.1001 25.9048 18.8011 27.6488C19.905 27.4742 20.9522 27.1378 21.9167 26.665C20.9696 24.1501 20.3034 21.5138 19.8331 18.4793C21.1177 21.401 22.4 23.7753 23.6672 25.5939C24.5576 24.9274 25.3392 24.1267 25.9815 23.2259C24.795 21.3988 23.6563 19.1033 22.633 16.7374C24.0656 18.1195 25.692 19.3439 27.4881 20.1723H27.4903Z" fill="#0C0C0C"/>
<circle cx="17" cy="17" r="15.3259" stroke="#0C0C0C" stroke-width="3.34819"/>
<path d="M105.853 22.965C105.853 23.3119 105.894 23.5597 105.977 23.7084C106.076 23.8571 106.258 23.9314 106.522 23.9314C106.604 23.9314 106.704 23.9314 106.819 23.9314C106.935 23.9314 107.067 23.9149 107.216 23.8818V25.8395C107.117 25.8726 106.984 25.9056 106.819 25.9386C106.671 25.9882 106.514 26.0295 106.348 26.0625C106.183 26.0956 106.018 26.1204 105.853 26.1369C105.688 26.1534 105.547 26.1617 105.432 26.1617C104.853 26.1617 104.374 26.046 103.994 25.8147C103.614 25.5834 103.366 25.1787 103.251 24.6005C102.689 25.1457 101.995 25.5421 101.169 25.79C100.36 26.0378 99.575 26.1617 98.8151 26.1617C98.2369 26.1617 97.6834 26.0791 97.1548 25.9139C96.6261 25.7652 96.1553 25.5421 95.7423 25.2448C95.3458 24.9309 95.0236 24.5427 94.7758 24.0801C94.5445 23.601 94.4289 23.0476 94.4289 22.4198C94.4289 21.6268 94.5693 20.9825 94.8502 20.4869C95.1475 19.9913 95.5275 19.603 95.9901 19.3222C96.4692 19.0413 96.9978 18.8431 97.576 18.7275C98.1708 18.5953 98.7655 18.4962 99.3603 18.4301C99.8724 18.331 100.36 18.2649 100.822 18.2318C101.285 18.1823 101.69 18.1079 102.037 18.0088C102.4 17.9097 102.681 17.761 102.879 17.5628C103.094 17.348 103.201 17.0341 103.201 16.6211C103.201 16.2576 103.11 15.9603 102.929 15.729C102.763 15.4977 102.549 15.3242 102.284 15.2086C102.037 15.0764 101.756 14.9938 101.442 14.9608C101.128 14.9112 100.831 14.8864 100.55 14.8864C99.7567 14.8864 99.1042 15.0517 98.592 15.3821C98.0799 15.7125 97.7908 16.2246 97.7247 16.9185H94.8997C94.9493 16.0924 95.1475 15.4068 95.4945 14.8617C95.8414 14.3165 96.2792 13.8787 96.8078 13.5483C97.353 13.2179 97.9643 12.9866 98.6416 12.8544C99.319 12.7223 100.013 12.6562 100.723 12.6562C101.351 12.6562 101.97 12.7223 102.582 12.8544C103.193 12.9866 103.738 13.2014 104.217 13.4987C104.713 13.7961 105.109 14.1843 105.407 14.6634C105.704 15.126 105.853 15.696 105.853 16.3733V22.965ZM103.028 19.3965C102.598 19.6774 102.07 19.8508 101.442 19.9169C100.814 19.9665 100.186 20.0491 99.5585 20.1647C99.2611 20.2143 98.972 20.2886 98.6912 20.3878C98.4103 20.4704 98.1625 20.5943 97.9478 20.7595C97.733 20.9082 97.5595 21.1147 97.4274 21.379C97.3117 21.6268 97.2539 21.9324 97.2539 22.2959C97.2539 22.6098 97.3448 22.8741 97.5265 23.0889C97.7082 23.3036 97.923 23.4771 98.1708 23.6093C98.4351 23.7249 98.716 23.8075 99.0133 23.8571C99.3272 23.9066 99.6081 23.9314 99.8559 23.9314C100.17 23.9314 100.508 23.8901 100.872 23.8075C101.235 23.7249 101.574 23.5845 101.888 23.3862C102.218 23.188 102.491 22.9402 102.706 22.6428C102.92 22.3289 103.028 21.9489 103.028 21.5029V19.3965Z" fill="#0C0C0C"/>
<path d="M86.4105 13.0031H89.0621V15.4812H89.1116C89.1942 15.1343 89.3512 14.7956 89.5824 14.4652C89.8303 14.1348 90.1194 13.8374 90.4498 13.5731C90.7967 13.2922 91.1767 13.0692 91.5897 12.904C92.0027 12.7388 92.424 12.6562 92.8535 12.6562C93.1839 12.6562 93.4069 12.6644 93.5226 12.681C93.6547 12.6975 93.7869 12.714 93.9191 12.7305V15.4564C93.7208 15.4234 93.5143 15.3986 93.2996 15.3821C93.1013 15.349 92.9031 15.3325 92.7048 15.3325C92.2257 15.3325 91.7714 15.4316 91.3419 15.6299C90.9289 15.8116 90.5654 16.0924 90.2515 16.4724C89.9376 16.8359 89.6898 17.2902 89.5081 17.8354C89.3264 18.3805 89.2355 19.0083 89.2355 19.7187V25.8147H86.4105V13.0031Z" fill="#0C0C0C"/>
<path d="M77.5942 26.1617C76.5699 26.1617 75.653 25.9965 74.8435 25.666C74.0505 25.3191 73.3732 24.8483 72.8115 24.2535C72.2663 23.6588 71.845 22.9484 71.5477 22.1224C71.2668 21.2964 71.1264 20.3878 71.1264 19.3965C71.1264 18.4218 71.2668 17.5215 71.5477 16.6954C71.845 15.8694 72.2663 15.159 72.8115 14.5643C73.3732 13.9696 74.0505 13.507 74.8435 13.1766C75.653 12.8297 76.5699 12.6562 77.5942 12.6562C78.6184 12.6562 79.5271 12.8297 80.32 13.1766C81.1295 13.507 81.8069 13.9696 82.3521 14.5643C82.9137 15.159 83.335 15.8694 83.6159 16.6954C83.9132 17.5215 84.0619 18.4218 84.0619 19.3965C84.0619 20.3878 83.9132 21.2964 83.6159 22.1224C83.335 22.9484 82.9137 23.6588 82.3521 24.2535C81.8069 24.8483 81.1295 25.3191 80.32 25.666C79.5271 25.9965 78.6184 26.1617 77.5942 26.1617ZM77.5942 23.9314C78.2219 23.9314 78.7671 23.7992 79.2297 23.5349C79.6923 23.2706 80.0722 22.9237 80.3696 22.4941C80.667 22.0646 80.8817 21.5855 81.0139 21.0568C81.1626 20.5117 81.2369 19.9582 81.2369 19.3965C81.2369 18.8514 81.1626 18.3062 81.0139 17.761C80.8817 17.2158 80.667 16.7367 80.3696 16.3237C80.0722 15.8942 79.6923 15.5473 79.2297 15.2829C78.7671 15.0186 78.2219 14.8864 77.5942 14.8864C76.9664 14.8864 76.4212 15.0186 75.9586 15.2829C75.4961 15.5473 75.1161 15.8942 74.8187 16.3237C74.5214 16.7367 74.2983 17.2158 74.1496 17.761C74.0175 18.3062 73.9514 18.8514 73.9514 19.3965C73.9514 19.9582 74.0175 20.5117 74.1496 21.0568C74.2983 21.5855 74.5214 22.0646 74.8187 22.4941C75.1161 22.9237 75.4961 23.2706 75.9586 23.5349C76.4212 23.7992 76.9664 23.9314 77.5942 23.9314Z" fill="#0C0C0C"/>
<path d="M65.8184 8.12079H68.6434V25.8142H65.8184V8.12079Z" fill="#0C0C0C"/>
<path d="M59.8412 8.12079H62.6662V25.8142H59.8412V8.12079Z" fill="#0C0C0C"/>
<path d="M48.3676 8.12079H51.6634L58.4781 25.8142H55.1575L53.4972 21.1306H46.4347L44.7744 25.8142H41.5777L48.3676 8.12079ZM47.2773 18.7765H52.6794L50.0279 11.1688H49.9536L47.2773 18.7765Z" fill="#0C0C0C"/>
</svg>
